<svg width="339" height="335" viewBox="0 0 339 335" fill="none" xmlns="http://www.w3.org/2000/svg">
<path d="M284 110.5L151.193 11.1374C148.707 9.27731 145.293 9.27731 142.807 11.1374L12.8065 108.4C11.0401 109.722 10 111.799 10 114.005V307C10 310.866 13.134 314 17 314H124" stroke="#86B6F6" stroke-width="19"/>
<path d="M97.4943 292V139.273H189.668V155.679H115.989V207.284H184.895V223.69H115.989V275.594H190.861V292H97.4943Z" fill="#3F81E0"/>
<path d="M217.931 292V278.577L300.261 155.679H217.036V139.273H322.335V152.696L240.005 275.594H323.229V292H217.931Z" fill="#86B6F6"/>
<rect x="148.5" y="38.5" width="9" height="8" stroke="#86B6F6"/>
<rect x="148.5" y="51.5" width="9" height="8" stroke="#00347A"/>
<rect x="136.5" y="38.5" width="9" height="8" stroke="#00347A"/>
<rect x="136.5" y="51.5" width="9" height="8" stroke="#86B6F6"/>
<path d="M139.17 327V300.818H148.017C150.071 300.818 151.75 301.189 153.054 301.93C154.366 302.663 155.338 303.656 155.969 304.909C156.599 306.162 156.915 307.56 156.915 309.102C156.915 310.645 156.599 312.047 155.969 313.308C155.347 314.57 154.384 315.575 153.08 316.325C151.776 317.067 150.105 317.438 148.068 317.438H141.727V314.625H147.966C149.372 314.625 150.501 314.382 151.354 313.896C152.206 313.411 152.824 312.754 153.207 311.928C153.599 311.092 153.795 310.151 153.795 309.102C153.795 308.054 153.599 307.116 153.207 306.29C152.824 305.463 152.202 304.815 151.341 304.347C150.48 303.869 149.338 303.631 147.915 303.631H142.341V327H139.17ZM161.613 327V307.364H164.528V310.33H164.732C165.09 309.358 165.738 308.57 166.675 307.964C167.613 307.359 168.67 307.057 169.846 307.057C170.067 307.057 170.344 307.061 170.677 307.07C171.009 307.078 171.261 307.091 171.431 307.108V310.176C171.329 310.151 171.094 310.112 170.728 310.061C170.37 310.001 169.991 309.972 169.59 309.972C168.636 309.972 167.783 310.172 167.033 310.572C166.292 310.964 165.704 311.51 165.269 312.209C164.843 312.899 164.63 313.687 164.63 314.574V327H161.613ZM182.387 327.409C180.614 327.409 179.059 326.987 177.721 326.143C176.391 325.3 175.352 324.119 174.602 322.602C173.86 321.085 173.489 319.312 173.489 317.284C173.489 315.239 173.86 313.453 174.602 311.928C175.352 310.402 176.391 309.217 177.721 308.374C179.059 307.53 180.614 307.108 182.387 307.108C184.16 307.108 185.711 307.53 187.04 308.374C188.379 309.217 189.418 310.402 190.16 311.928C190.91 313.453 191.285 315.239 191.285 317.284C191.285 319.312 190.91 321.085 190.16 322.602C189.418 324.119 188.379 325.3 187.04 326.143C185.711 326.987 184.16 327.409 182.387 327.409ZM182.387 324.699C183.734 324.699 184.842 324.354 185.711 323.663C186.58 322.973 187.224 322.065 187.641 320.94C188.059 319.815 188.268 318.597 188.268 317.284C188.268 315.972 188.059 314.749 187.641 313.615C187.224 312.482 186.58 311.565 185.711 310.866C184.842 310.168 183.734 309.818 182.387 309.818C181.04 309.818 179.933 310.168 179.063 310.866C178.194 311.565 177.55 312.482 177.133 313.615C176.715 314.749 176.506 315.972 176.506 317.284C176.506 318.597 176.715 319.815 177.133 320.94C177.55 322.065 178.194 322.973 179.063 323.663C179.933 324.354 181.04 324.699 182.387 324.699ZM195.89 334.364V307.364H198.805V310.483H199.163C199.385 310.142 199.691 309.707 200.083 309.179C200.484 308.642 201.055 308.165 201.797 307.747C202.547 307.321 203.561 307.108 204.839 307.108C206.493 307.108 207.95 307.521 209.211 308.348C210.473 309.175 211.457 310.347 212.164 311.864C212.872 313.381 213.225 315.17 213.225 317.233C213.225 319.312 212.872 321.115 212.164 322.641C211.457 324.158 210.477 325.334 209.224 326.169C207.971 326.996 206.527 327.409 204.89 327.409C203.629 327.409 202.619 327.2 201.86 326.783C201.102 326.357 200.518 325.875 200.109 325.338C199.7 324.793 199.385 324.341 199.163 323.983H198.907V334.364H195.89ZM198.856 317.182C198.856 318.665 199.074 319.973 199.508 321.107C199.943 322.232 200.578 323.114 201.413 323.753C202.248 324.384 203.271 324.699 204.481 324.699C205.743 324.699 206.795 324.366 207.639 323.702C208.491 323.028 209.13 322.125 209.556 320.991C209.991 319.849 210.208 318.58 210.208 317.182C210.208 315.801 209.995 314.557 209.569 313.449C209.152 312.332 208.517 311.45 207.664 310.803C206.821 310.146 205.76 309.818 204.481 309.818C203.254 309.818 202.223 310.129 201.387 310.751C200.552 311.365 199.922 312.226 199.495 313.334C199.069 314.433 198.856 315.716 198.856 317.182ZM226.061 327.409C224.169 327.409 222.537 326.991 221.164 326.156C219.801 325.312 218.748 324.136 218.007 322.628C217.274 321.111 216.907 319.347 216.907 317.335C216.907 315.324 217.274 313.551 218.007 312.017C218.748 310.474 219.779 309.273 221.1 308.412C222.43 307.543 223.981 307.108 225.754 307.108C226.777 307.108 227.787 307.278 228.784 307.619C229.781 307.96 230.689 308.514 231.507 309.281C232.325 310.04 232.977 311.045 233.463 312.298C233.949 313.551 234.191 315.094 234.191 316.926V318.205H219.055V315.597H231.123C231.123 314.489 230.902 313.5 230.458 312.631C230.024 311.761 229.402 311.075 228.592 310.572C227.791 310.07 226.845 309.818 225.754 309.818C224.552 309.818 223.512 310.116 222.635 310.713C221.765 311.301 221.096 312.068 220.627 313.014C220.159 313.96 219.924 314.974 219.924 316.057V317.795C219.924 319.278 220.18 320.536 220.691 321.567C221.211 322.589 221.931 323.369 222.852 323.906C223.772 324.435 224.842 324.699 226.061 324.699C226.853 324.699 227.569 324.588 228.208 324.366C228.856 324.136 229.414 323.795 229.883 323.344C230.352 322.884 230.714 322.312 230.97 321.631L233.885 322.449C233.578 323.438 233.062 324.307 232.338 325.057C231.613 325.798 230.718 326.378 229.653 326.795C228.588 327.205 227.39 327.409 226.061 327.409ZM238.781 327V307.364H241.696V310.33H241.9C242.258 309.358 242.906 308.57 243.843 307.964C244.781 307.359 245.838 307.057 247.014 307.057C247.235 307.057 247.512 307.061 247.845 307.07C248.177 307.078 248.429 307.091 248.599 307.108V310.176C248.497 310.151 248.262 310.112 247.896 310.061C247.538 310.001 247.159 309.972 246.758 309.972C245.804 309.972 244.951 310.172 244.201 310.572C243.46 310.964 242.872 311.51 242.437 312.209C242.011 312.899 241.798 313.687 241.798 314.574V327H238.781ZM261.946 307.364V309.92H251.77V307.364H261.946ZM254.735 302.659H257.752V321.375C257.752 322.227 257.876 322.866 258.123 323.293C258.379 323.71 258.703 323.991 259.095 324.136C259.495 324.273 259.917 324.341 260.36 324.341C260.693 324.341 260.966 324.324 261.179 324.29C261.392 324.247 261.562 324.213 261.69 324.188L262.304 326.898C262.099 326.974 261.814 327.051 261.447 327.128C261.081 327.213 260.616 327.256 260.054 327.256C259.201 327.256 258.366 327.072 257.548 326.706C256.738 326.339 256.065 325.781 255.528 325.031C255 324.281 254.735 323.335 254.735 322.193V302.659ZM268.427 334.364C267.916 334.364 267.46 334.321 267.059 334.236C266.659 334.159 266.382 334.082 266.228 334.006L266.995 331.347C267.728 331.534 268.376 331.602 268.939 331.551C269.501 331.5 270 331.249 270.434 330.797C270.877 330.354 271.282 329.634 271.649 328.636L272.211 327.102L264.95 307.364H268.223L273.643 323.011H273.848L279.268 307.364H282.541L274.206 329.864C273.831 330.878 273.366 331.717 272.812 332.382C272.258 333.055 271.615 333.554 270.882 333.878C270.157 334.202 269.339 334.364 268.427 334.364Z" fill="#3F81E0"/>
</svg>
